<svg width="50" height="50" viewBox="0 0 50 50" fill="none" xmlns="http://www.w3.org/2000/svg">
<path d="M5 0.0564651C3.79688 0.236866 2.8125 0.785912 1.98438 1.74282C1.26172 2.57031 0.664063 3.70762 0.191406 5.1469L0 5.73124L0.0117188 25.3635L0.0195313 44.9998L0.109375 45.3802C0.351563 46.443 0.769531 47.1763 1.53906 47.9097C1.74219 48.1019 2.07031 48.3686 2.27344 48.5058C3.08203 49.0549 4.33984 49.5725 5.59766 49.8784L6.09375 50L25.5586 49.9882L45.0195 49.9804L45.4102 49.8902C47.7344 49.3529 49.2031 47.4156 49.918 43.9448L50 43.5566V24.8263V6.09597L49.9024 5.68418C49.1563 2.59384 47.7656 0.762383 45.7305 0.193729C44.9922 -0.0141258 46.1211 -0.0023613 24.9492 0.00156021C9.33203 0.00548172 5.26563 0.0172501 5 0.0564651ZM39.5898 5.4528C39.7422 5.53908 39.8242 5.6332 39.8789 5.79791C39.9102 5.89204 39.9219 6.6254 39.9219 8.28431C39.9219 10.5825 39.918 10.6452 39.8398 10.806C39.7813 10.9276 39.7148 10.9942 39.5938 11.0531C39.4336 11.1315 39.3672 11.1354 37.6992 11.1354H35.9688L35.7305 11.2609C35.3633 11.457 35.043 11.7982 34.8516 12.1943C34.5859 12.7394 34.5547 12.9904 34.5508 14.4493C34.5508 15.669 34.5547 15.7082 34.6367 15.8651C34.6914 15.967 34.7773 16.0533 34.8711 16.1004C35.0117 16.171 35.1602 16.1749 37.4727 16.1866L39.9219 16.1984V18.5279V20.8614H37.5078H35.0938L34.9219 20.9476C34.7891 21.0182 34.7227 21.0849 34.6484 21.2339L34.5508 21.4261L34.5391 32.8306L34.5313 44.235H30.8477C27.3438 44.235 27.1602 44.2311 27.0078 44.1605C26.9102 44.1134 26.8125 44.0311 26.7539 43.937L26.6602 43.784L26.6484 32.3207L26.6406 20.8614H24.2969H21.9531V18.8064C21.9531 17.4455 21.9688 16.7122 21.9961 16.6376C22.0469 16.5004 22.1719 16.3631 22.3242 16.2808C22.4258 16.2219 22.668 16.2102 24.2969 16.1945C25.7695 16.1788 26.1719 16.1631 26.25 16.12C26.3945 16.0415 26.5273 15.9121 26.5742 15.8023C26.6016 15.7396 26.625 15.1356 26.6445 14.1748C26.6602 13.0924 26.6875 12.508 26.7344 12.1747C26.9492 10.6099 27.3711 9.37848 28.0352 8.37058C28.3945 7.82546 29.1406 7.08033 29.6875 6.71952C30.8281 5.95871 32.207 5.53516 33.9453 5.41358C34.1914 5.39397 35.5391 5.38221 36.9336 5.38613C39.2109 5.39005 39.4844 5.3979 39.5898 5.4528Z" fill="white"/>
</svg>
