<svg width="50" height="50" viewBox="0 0 50 50" fill="none" xmlns="http://www.w3.org/2000/svg">
<path d="M11.8555 0.0402985C11.293 0.0910873 10.3321 0.255169 9.74613 0.407536C5.17972 1.58347 1.58597 5.1777 0.41019 9.74471C0.25394 10.3581 0.0937836 11.2957 0.0390961 11.9325C0.0156586 12.2372 3.35931e-05 16.8394 3.35931e-05 25.0045C3.35931e-05 38.7095 -0.00777891 38.1391 0.214877 39.3619C0.828159 42.7022 2.73831 45.6791 5.51957 47.6364C7.46488 49.0038 9.65238 49.7812 12.0703 49.9649C12.9063 50.0274 37.9766 50 38.4375 49.9336C40.6875 49.6132 42.3789 49.0038 44.0782 47.906C44.8321 47.4176 45.3399 47.0074 46.0664 46.2925C47.3164 45.0736 48.2071 43.8039 48.8868 42.2568C49.4102 41.077 49.711 39.9635 49.9297 38.4399C49.9961 37.9789 50.0235 12.9053 49.961 12.0692C49.7852 9.78377 49.0821 7.70147 47.8477 5.83794C45.8829 2.8688 42.8399 0.852905 39.3594 0.212196C38.1368 -0.0104904 38.7227 -0.00267792 24.9258 0.00123215C17.9532 0.0051384 12.0703 0.0246696 11.8555 0.0402985ZM38.0469 4.33383C41.668 4.77921 44.6016 7.36158 45.4883 10.8777C45.7579 11.9481 45.7422 10.991 45.7422 25.0202C45.7422 36.1779 45.7344 37.7484 45.6836 38.1547C45.4883 39.6354 44.9258 41.0379 44.0313 42.2451C43.6563 42.753 42.75 43.6593 42.2422 44.0344C41.0352 44.929 39.6329 45.4916 38.1524 45.6869C37.7461 45.7377 36.1758 45.7455 25.0196 45.7455C10.9922 45.7455 11.9493 45.7612 10.8789 45.4916C7.3516 44.6009 4.74222 41.6239 4.33597 38.0141C4.30472 37.7484 4.29691 33.8534 4.30472 24.7858L4.31644 11.9325L4.42582 11.3934C5.05863 8.22497 7.25394 5.71683 10.2618 4.72451C10.7774 4.55652 11.6094 4.369 12.0703 4.32211C12.4258 4.28305 37.7383 4.29867 38.0469 4.33383Z" fill="white"/>
<path d="M38.2227 8.37322C37.1368 8.62716 36.3047 9.43586 36.0391 10.5102C35.9493 10.8735 35.9571 11.5064 36.0547 11.8893C36.4844 13.577 38.3321 14.4912 39.9415 13.8153C40.3751 13.6356 40.9297 13.1903 41.1758 12.8269C41.8594 11.819 41.8516 10.4907 41.1524 9.51009C40.8047 9.02174 40.3282 8.67013 39.7383 8.46307C39.4454 8.3615 39.3243 8.34587 38.9258 8.33415C38.6212 8.32243 38.3751 8.33806 38.2227 8.37322Z" fill="white"/>
<path d="M24.1993 12.6002C21.1289 12.8424 18.3633 14.1004 16.2344 16.2335C14.2657 18.1986 13.0586 20.6677 12.668 23.5157C12.5743 24.2072 12.5743 25.8442 12.6719 26.5435C12.9493 28.5789 13.5743 30.2549 14.668 31.8957C16.3711 34.4547 18.9141 36.283 21.8438 37.0527C23.6797 37.5332 25.6797 37.5879 27.5352 37.205C29.9258 36.7128 32.0664 35.5564 33.8086 33.8101C35.7891 31.8293 36.9922 29.3837 37.3711 26.563C37.4571 25.9106 37.4688 24.258 37.3907 23.6329C37.0235 20.7263 35.8125 18.2299 33.7891 16.2101C31.836 14.2606 29.3399 13.0417 26.543 12.6745C26.0977 12.6119 24.6133 12.569 24.1993 12.6002ZM25.7618 16.4093C27.4336 16.55 29.0938 17.218 30.4297 18.2807C30.8711 18.6362 31.5977 19.3863 31.9375 19.8434C32.8125 21.0154 33.3477 22.2968 33.5821 23.7697C33.6758 24.3713 33.6758 25.6723 33.5821 26.2856C32.9883 30.0791 30.0782 32.9896 26.2852 33.5835C25.6875 33.6772 24.336 33.6772 23.7579 33.5835C20.8985 33.1225 18.5196 31.3761 17.2657 28.8172C15.9688 26.1762 16.1016 23.0743 17.6211 20.5583C18.3125 19.4175 19.418 18.3119 20.5586 17.6204C22.1172 16.6789 23.9532 16.253 25.7618 16.4093Z" fill="white"/>
</svg>
