<svg width="1385" height="249" viewBox="0 0 1385 249" fill="none" xmlns="http://www.w3.org/2000/svg">
<path d="M-55 248.5V224L-47.5 224.042L125 225H197H249.5H296.5H341.5L486 219L607 213.5L741 205L792.5 199.5L882.5 190L991 176L1085 158.5L1118.5 152.5L1147 147L1169.5 141.5L1193 135L1210.5 129L1240.5 120L1261.5 112.5L1282 104L1300.5 95.5L1317.5 86L1339.5 73.5L1356 60L1368 44L1377.5 27L1384 9V248.5H-55Z" fill="#FAEC1A"/>
<path d="M1384 0V9M1384 9V248.5H-55V224L-47.5 224.042L125 225H197H249.5H296.5H341.5L486 219L607 213.5L741 205L792.5 199.5L882.5 190L991 176L1085 158.5L1118.5 152.5L1147 147L1169.5 141.5L1193 135L1210.5 129L1240.5 120L1261.5 112.5L1282 104L1300.5 95.5L1317.5 86L1339.5 73.5L1356 60L1368 44L1377.5 27L1384 9Z" stroke="#FAEC1A"/>
</svg>
